<?xml version="1.0" standalone="no"?>
<!DOCTYPE svg PUBLIC "-//W3C//DTD SVG 20010904//EN"
 "http://www.w3.org/TR/2001/REC-SVG-20010904/DTD/svg10.dtd">
<svg version="1.0" xmlns="http://www.w3.org/2000/svg"
 width="1280.000000pt" height="1280.000000pt" viewBox="0 0 1280.000000 1280.000000"
 preserveAspectRatio="xMidYMid meet">
<g transform="translate(0.000000,1280.000000) scale(0.100000,-0.100000)"
fill="#000000" stroke="none">
<path d="M5704 11024 c-2164 -2284 -4012 -4250 -4006 -4259 7 -13 3951 -4190
4187 -4435 72 -74 133 -136 137 -138 5 -2 9 482 10 1075 l3 1078 2815 5 c1548
3 2816 6 2818 8 1 1 2 1089 2 2417 l0 2415 -2817 2 -2818 3 -5 1084 -5 1084
-321 -339z"/>
</g>
</svg>
